<svg xmlns="http://www.w3.org/2000/svg" height="512" viewBox="0 0 512 512" width="512">
    <g>
        <g>
            <path
                    d="m256 496c-130.907 0-256-79.37-256-120 0-51.172 105.25 0 256 0 150.244 0 256-51 256 0 0 41.447-126.384 120-256 120z"/>
        </g>
        <g>
            <path
                    d="m90.81 286h330.38c-.13 6.23-.19 43.41-.19 43.41-52.6 8.04-103.03 16.59-165 16.59-61.28 0-110.42-8.31-165-16.61 0 0-.06-37.16-.19-43.39z"/>
            <path
                    d="m450.55 64.64c-15.67 62.69-25.17 126.85-28.34 191.36h-332.42c-3.17-64.51-12.67-128.67-28.34-191.36-1.85-7.41 2.16-15.03 9.32-17.7 3.39-1.26 84.28-30.94 185.23-30.94s181.84 29.68 185.23 30.94c7.16 2.67 11.18 10.29 9.32 17.7z"/>
        </g>
    </g>
</svg>